<svg width="416" height="378" viewBox="0 0 416 378" fill="none" xmlns="http://www.w3.org/2000/svg">
<g id="logo">
<g id="logo_2">
<g id="complete-arm">
<g id="carrot-body">
<path id="body" d="M241 95.7493C239.361 89.5139 236.45 85.2943 233.317 82.4402C226.136 75.8998 214.893 73.8604 205.859 77.4137C201.902 78.9697 197.653 81.8779 193.845 87.1145C182.595 102.591 190.464 174.901 201.269 176.882C212.078 178.861 245.845 114.174 241 95.7493Z" fill="#D45500" stroke="black" stroke-width="5"/>
<path id="line04" d="M241.214 100L229.518 98.3086" stroke="black" stroke-width="5" stroke-linecap="round"/>
<path id="line03" d="M228.163 135.509L217.605 133.576" stroke="black" stroke-width="5" stroke-linecap="round"/>
<path id="line02" d="M190.892 139.895L200.415 141.64" stroke="black" stroke-width="5" stroke-linecap="round"/>
<path id="line01" d="M189.717 99.4946L204.856 102.265" stroke="black" stroke-width="5" stroke-linecap="round"/>
</g>
<path id="arm" d="M218.678 40.001C216.997 40.0134 215.316 40.1142 213.642 40.3079C210.073 40.7212 206.542 41.5559 203.134 42.8146C189.502 47.8491 178.802 59.3701 174.775 73.3524C170.748 87.3346 173.674 102.797 182.533 114.331C183.024 114.97 183.636 115.507 184.333 115.909C185.031 116.312 185.801 116.572 186.599 116.677C187.398 116.781 188.209 116.727 188.986 116.517C189.763 116.308 190.492 115.947 191.13 115.455C191.768 114.963 192.304 114.351 192.705 113.652C193.107 112.953 193.368 112.182 193.472 111.383C193.576 110.583 193.522 109.771 193.313 108.992C193.103 108.213 192.743 107.484 192.252 106.844C185.882 98.5519 183.655 86.8072 186.551 76.7544C189.446 66.7016 197.574 57.951 207.375 54.3314C217.175 50.7117 229.03 52.0848 237.748 57.8485C246.466 63.6121 252.384 73.9914 252.914 84.4407C253.286 91.7795 251.144 99.3494 246.983 105.401C242.821 111.452 236.522 116.159 229.544 118.427C228.778 118.676 228.069 119.073 227.457 119.596C226.844 120.12 226.341 120.759 225.975 121.477C225.609 122.195 225.388 122.978 225.325 123.782C225.261 124.586 225.357 125.394 225.605 126.161C226.107 127.709 227.203 128.994 228.651 129.733C230.099 130.472 231.781 130.605 233.327 130.102C242.933 126.981 251.347 120.699 257.076 112.368C262.805 104.037 265.671 93.9201 265.159 83.8172C264.807 76.8803 262.844 70.1434 259.573 64.1216C293.146 53.9192 331.968 61.1801 359.458 83.0259C387.837 105.578 403.844 143.443 400.266 179.55C398.162 200.78 389.646 221.423 376.173 237.948C362.701 254.473 344.208 266.958 323.861 273.266C322.308 273.747 321.01 274.827 320.252 276.267C319.494 277.707 319.338 279.389 319.818 280.944C320.055 281.715 320.442 282.432 320.956 283.053C321.469 283.674 322.1 284.187 322.813 284.564C323.525 284.94 324.304 285.173 325.106 285.248C325.907 285.323 326.716 285.238 327.485 285C350.183 277.963 370.641 264.146 385.669 245.713C400.696 227.28 410.117 204.441 412.463 180.759C416.475 140.278 398.893 98.6906 367.076 73.4067C347.19 57.6042 322.373 48.6683 297.173 47.3948C282.053 46.6306 266.793 48.6271 252.376 53.5464C252.23 53.616 252.088 53.6912 251.948 53.772C249.701 51.469 247.208 49.3929 244.498 47.6011C236.824 42.5282 227.757 39.9408 218.678 40.001V40.001Z" fill="#9D9C9C" stroke="black" stroke-width="5.00001" stroke-linecap="round"/>
<path id="carrot-head" d="M218.021 19.5328C217.001 6.76778 222.058 3.88091 224.65 3.23547C225.514 3.02033 226.104 3.05417 226.104 3.05417C226.104 3.05417 235.489 4.19686 230.914 20.6859C230.639 21.6816 231.696 22.5155 232.604 22.001C235.748 20.2198 240.881 18.3476 243.351 23.1796C245.945 28.2621 239.072 32.6895 234.733 34.8808C233.763 35.372 233.909 36.7677 234.961 37.0188C238.986 37.9752 245.127 40.0587 245.559 43.9252C245.884 46.8492 239.972 51.3332 234.978 54.5693C228.908 58.5014 224.713 64.7335 223.331 71.7689C223.056 73.1895 222.84 74.5104 222.68 75.6187C222.679 75.625 222.675 75.6295 222.674 75.6359L221.618 75.4419C220.019 75.1479 218.395 75.0022 216.769 75.0064L215.668 75.0094C215.669 75.0021 215.665 74.996 215.665 74.9888C215.719 73.8733 215.759 72.5386 215.755 71.0911C215.737 63.9336 212.802 57.0619 207.581 52.1197C203.29 48.0541 198.329 42.5987 199.206 39.7818C200.367 36.0551 206.796 35.0966 210.933 34.8709C212.016 34.811 212.424 33.4635 211.569 32.8102C207.72 29.8829 201.808 24.312 205.322 19.782C208.67 15.4689 213.36 18.2172 216.113 20.5276C216.908 21.1944 218.102 20.5632 218.021 19.5328Z" fill="#008000" stroke="black" stroke-width="5.0002"/>
</g>
<g id="main-body">
<path id="head" d="M179 150H236.635L223.395 180.18H192.241L179 150Z" fill="#70706F" stroke="black" stroke-width="5" stroke-linecap="round" stroke-linejoin="round"/>
<path id="background" d="M263.968 374.823H151.695C115.964 374.823 87 345.811 87 310.023V244.8C87 209.012 115.964 180 151.695 180H263.968C299.698 180 328.663 209.012 328.663 244.8V310.023C328.663 345.811 299.698 374.823 263.968 374.823Z" fill="#9D9C9C" stroke="black" stroke-width="5"/>
<g id="accent">
<path id="accent-shape2" d="M173 304.893V373.006H151.727C117.083 373.006 89 345.969 89 312.617V304.006L173 304.893Z" fill="#70706F"/>
<path id="accent-shape1" d="M172 249.006V182.006H264.265C298.913 182.006 327 209.131 327 242.591V249.006H172Z" fill="#70706F"/>
<g id="screws">
<g id="screw15">
<path id="path58-7-9" d="M95.9699 298.461C95.9699 299.709 94.9602 300.721 93.7138 300.721C92.4679 300.721 91.4576 299.709 91.4576 298.461C91.4576 297.213 92.4679 296.201 93.7138 296.201C94.9602 296.201 95.9699 297.213 95.9699 298.461Z" fill="#575756"/>
</g>
<g id="screw14">
<path id="path62-3-1" d="M114.951 298.461C114.951 299.709 113.941 300.721 112.694 300.721C111.448 300.721 110.438 299.709 110.438 298.461C110.438 297.213 111.448 296.201 112.694 296.201C113.941 296.201 114.951 297.213 114.951 298.461Z" fill="#575756"/>
</g>
<g id="screw13">
<path id="path66-5-9" d="M133.163 298.461C133.163 299.709 132.153 300.721 130.907 300.721C129.66 300.721 128.651 299.709 128.651 298.461C128.651 297.213 129.66 296.201 130.907 296.201C132.153 296.201 133.163 297.213 133.163 298.461Z" fill="#575756"/>
</g>
<g id="screw12">
<path id="path70-6-5" d="M151.112 298.461C151.112 299.709 150.102 300.721 148.856 300.721C147.61 300.721 146.6 299.709 146.6 298.461C146.6 297.213 147.61 296.201 148.856 296.201C150.102 296.201 151.112 297.213 151.112 298.461Z" fill="#575756"/>
</g>
<g id="screw11">
<path id="path98-1-2" d="M303.374 255.026C303.374 256.274 302.365 257.286 301.118 257.286C299.872 257.286 298.862 256.274 298.862 255.026C298.862 253.778 299.872 252.766 301.118 252.766C302.365 252.766 303.374 253.778 303.374 255.026Z" fill="#575756"/>
</g>
<g id="screw10">
<path id="path102-2-3" d="M321.7 255.026C321.7 256.274 320.689 257.286 319.444 257.286C318.197 257.286 317.187 256.274 317.187 255.026C317.187 253.778 318.197 252.766 319.444 252.766C320.689 252.766 321.7 253.778 321.7 255.026Z" fill="#575756"/>
</g>
<g id="screw09">
<path id="path110-1-7" d="M210.182 255.026C210.182 256.274 209.172 257.286 207.925 257.286C206.68 257.286 205.669 256.274 205.669 255.026C205.669 253.778 206.68 252.766 207.925 252.766C209.172 252.766 210.182 253.778 210.182 255.026Z" fill="#575756"/>
</g>
<g id="screw08">
<path id="path118-2-2" d="M180.422 302.15C179.177 302.15 178.166 301.139 178.166 299.89C178.166 298.641 179.177 297.63 180.422 297.63C181.669 297.63 182.679 298.641 182.679 299.89C182.679 301.139 181.669 302.15 180.422 302.15Z" fill="#575756"/>
</g>
<g id="screw07">
<path id="path122-1-4" d="M180.422 321.161C179.177 321.161 178.166 320.149 178.166 318.901C178.166 317.653 179.177 316.642 180.422 316.642C181.669 316.642 182.679 317.653 182.679 318.901C182.679 320.149 181.669 321.161 180.422 321.161Z" fill="#575756"/>
</g>
<g id="screw06">
<path id="path126-7-7" d="M180.422 339.403C179.177 339.403 178.166 338.391 178.166 337.144C178.166 335.895 179.177 334.883 180.422 334.883C181.669 334.883 182.679 335.895 182.679 337.144C182.679 338.391 181.669 339.403 180.422 339.403Z" fill="#575756"/>
</g>
<g id="screw05">
<path id="path130-6-6" d="M180.422 357.382C179.177 357.382 178.166 356.37 178.166 355.122C178.166 353.874 179.177 352.862 180.422 352.862C181.669 352.862 182.679 353.874 182.679 355.122C182.679 356.37 181.669 357.382 180.422 357.382Z" fill="#575756"/>
</g>
<g id="screw04">
<path id="path134-1-9" d="M180.422 375.737C179.177 375.737 178.166 374.726 178.166 373.478C178.166 372.229 179.177 371.218 180.422 371.218C181.669 371.218 182.679 372.229 182.679 373.478C182.679 374.726 181.669 375.737 180.422 375.737Z" fill="#575756"/>
</g>
<g id="screw03">
<path id="path138-5-5" d="M163.648 191.171C162.402 191.171 161.391 190.16 161.391 188.911C161.391 187.663 162.402 186.651 163.648 186.651C164.894 186.651 165.904 187.663 165.904 188.911C165.904 190.16 164.894 191.171 163.648 191.171Z" fill="#575756"/>
</g>
<g id="screw02">
<path id="path142-1-5" d="M163.648 210.183C162.402 210.183 161.391 209.171 161.391 207.923C161.391 206.675 162.402 205.663 163.648 205.663C164.894 205.663 165.904 206.675 165.904 207.923C165.904 209.171 164.894 210.183 163.648 210.183Z" fill="#575756"/>
</g>
<g id="screw01">
<path id="path146-7-5" d="M163.648 228.425C162.402 228.425 161.391 227.413 161.391 226.165C161.391 224.916 162.402 223.905 163.648 223.905C164.894 223.905 165.904 224.916 165.904 226.165C165.904 227.413 164.894 228.425 163.648 228.425Z" fill="#575756"/>
</g>
</g>
</g>
<g id="face">
<g id="left-eye">
<path id="eye" d="M197.87 263.316C197.87 282.942 181.986 298.851 162.392 298.851C142.799 298.851 126.915 282.942 126.915 263.316C126.915 243.69 142.799 227.78 162.392 227.78C181.986 227.78 197.87 243.69 197.87 263.316Z" fill="white" stroke="black" stroke-width="5"/>
<path id="pupil" d="M162.41 267.149C168.283 267.149 168.294 258.005 162.41 258.005C156.535 258.005 156.525 267.149 162.41 267.149Z" fill="#1D1D1B"/>
</g>
<g id="right-eye">
<path id="eye_2" d="M290.248 263.316C290.248 282.942 274.363 298.851 254.769 298.851C235.176 298.851 219.292 282.942 219.292 263.316C219.292 243.69 235.176 227.78 254.769 227.78C274.363 227.78 290.248 243.69 290.248 263.316Z" fill="white" stroke="black" stroke-width="5"/>
<path id="pupil_2" d="M255.409 267.15C261.284 267.15 261.294 258.005 255.409 258.005C249.535 258.005 249.525 267.15 255.409 267.15Z" fill="#1D1D1B"/>
</g>
<path id="mouth" d="M177.221 323.25C177.221 323.25 185.746 337.63 207.728 337.59C226.557 337.557 238.235 323.25 238.235 323.25" stroke="black" stroke-width="5" stroke-linecap="round"/>
</g>
<path id="line-overlay" d="M263.968 374.823H151.695C115.964 374.823 87 345.811 87 310.023V244.8C87 209.012 115.964 180 151.695 180H263.968C299.698 180 328.663 209.012 328.663 244.8V310.023C328.663 345.811 299.698 374.823 263.968 374.823Z" stroke="black" stroke-width="5.09848"/>
</g>
</g>
</g>
</svg>
